<svg width="20" height="16" viewBox="0 0 20 16" fill="none" xmlns="http://www.w3.org/2000/svg">
<path fill-rule="evenodd" clip-rule="evenodd" d="M0.762563 0.762563C1.07843 0.446697 1.51696 0.25 2 0.25H18C18.483 0.25 18.9216 0.446695 19.2374 0.762564C19.5533 1.07843 19.75 1.51696 19.75 2V14C19.75 14.9665 18.9665 15.75 18 15.75H2C1.0335 15.75 0.25 14.9665 0.25 14V2C0.25 1.51696 0.446697 1.07843 0.762563 0.762563ZM2.81067 1.75L9.11611 8.05541L8.62114 8.55038L9.11612 8.05541C9.60427 8.54356 10.3957 8.54357 10.8839 8.05541L11.4142 8.58574L10.8839 8.05541L17.1893 1.75H2.81067ZM18.25 2.81065L11.9445 9.11607C10.8706 10.19 9.1294 10.19 8.05546 9.11607L8.58579 8.58574L8.05546 9.11607L1.75 2.81065V14C1.75 14.1381 1.86193 14.25 2 14.25H18C18.1381 14.25 18.25 14.1381 18.25 14V2.81065Z" fill="#7E74F1"/>
</svg>
