<svg width="19" height="19" viewBox="0 0 19 19" fill="none" xmlns="http://www.w3.org/2000/svg">
<path fill-rule="evenodd" clip-rule="evenodd" d="M11.2546 0.917256C11.3003 0.505576 11.6711 0.208917 12.0828 0.254652C13.8075 0.446249 15.3376 1.27852 16.53 2.4694C17.7239 3.66177 18.5518 5.19372 18.7453 6.91632C18.7916 7.32794 18.4954 7.69912 18.0838 7.74537C17.6721 7.79163 17.3009 7.49543 17.2547 7.08381C17.1041 5.74378 16.4567 4.51622 15.47 3.53073C14.4818 2.54375 13.2556 1.89416 11.9172 1.74548C11.5055 1.69975 11.2088 1.32894 11.2546 0.917256ZM5.23289 2.00602C5.0379 1.83866 4.78833 1.74759 4.53067 1.75012L4.5233 1.75019V1.75015H1.80858C1.20987 1.75089 0.700053 2.30521 0.754055 2.90162C0.756109 2.9243 0.757129 2.94707 0.757111 2.96984C0.750371 11.5231 7.41626 18.2497 16.0259 18.243C16.0486 18.243 16.0712 18.244 16.0938 18.246C16.6976 18.3005 17.2519 17.7852 17.2495 17.1895L17.2495 17.1865V14.4767L17.2497 14.4581C17.2561 14.1994 17.1671 13.9473 16.9992 13.7495C16.8954 13.6272 16.6782 13.4656 16.3278 13.2976C15.9898 13.1355 15.58 12.9922 15.1485 12.8801C14.25 12.6466 13.4183 12.5884 13.0413 12.6686C12.8113 12.7176 12.5686 12.8685 12.2754 13.1446C12.1318 13.2798 11.991 13.4303 11.8397 13.5954C11.8189 13.618 11.7978 13.6411 11.7764 13.6645C11.6481 13.8048 11.5089 13.957 11.3703 14.0953C11.1317 14.3334 10.7636 14.3831 10.4704 14.2167C8.08725 12.8643 6.11388 10.8949 4.75859 8.51618C4.5912 8.22238 4.64111 7.85291 4.88044 7.61405C5.01901 7.47576 5.1715 7.33685 5.31203 7.20884C5.3355 7.18746 5.35864 7.16638 5.38133 7.14566C5.54672 6.99459 5.69752 6.85409 5.83299 6.71081C6.10983 6.41801 6.26058 6.1762 6.30943 5.94761C6.38949 5.57296 6.33165 4.74713 6.09917 3.85289C5.9876 3.42371 5.84496 3.01564 5.68368 2.67851C5.51658 2.32922 5.35548 2.11124 5.23289 2.00602ZM4.51993 0.250154C5.13931 0.245036 5.73978 0.464342 6.20984 0.86779C6.56066 1.1689 6.83075 1.60045 7.0368 2.03116C7.24868 2.47403 7.42118 2.97643 7.55091 3.47547C7.80106 4.43766 7.93056 5.53922 7.77631 6.26107C7.64222 6.88857 7.27001 7.37427 6.92295 7.74134C6.74647 7.92799 6.56009 8.10052 6.39294 8.25319C6.38338 8.26192 6.3739 8.27058 6.3645 8.27915C7.46547 10.0317 8.95 11.5131 10.7066 12.6117C10.7157 12.6017 10.7249 12.5917 10.7341 12.5816C10.8871 12.4148 11.06 12.2288 11.247 12.0526C11.6149 11.7061 12.1012 11.3351 12.729 11.2015C13.4523 11.0475 14.5589 11.1771 15.5258 11.4283C16.0271 11.5586 16.5318 11.7319 16.9763 11.945C17.4084 12.1522 17.8418 12.4243 18.1427 12.7787C18.5467 13.2545 18.7625 13.8615 18.7495 14.4853V17.185M10.7639 4.35644C10.8432 3.9499 11.2371 3.68463 11.6436 3.76394C12.4866 3.92841 13.3677 4.30715 14.0303 4.96973C14.6929 5.63232 15.0717 6.51351 15.2361 7.35644C15.3154 7.76299 15.0502 8.15686 14.6436 8.23618C14.2371 8.3155 13.8432 8.05023 13.7639 7.64368C13.6407 7.0123 13.3692 6.42996 12.9697 6.03039C12.5701 5.63082 11.9878 5.35937 11.3564 5.23618C10.9498 5.15687 10.6846 4.76299 10.7639 4.35644Z" fill="#7E74F1"/>
</svg>
