<svg width="19" height="16" viewBox="0 0 19 16" fill="none" xmlns="http://www.w3.org/2000/svg">
<path fill-rule="evenodd" clip-rule="evenodd" d="M1.21299 0.307112C1.49324 0.191027 1.81583 0.255193 2.03033 0.469692L5.5 3.93936L8.96967 0.469692C9.26256 0.176799 9.73744 0.176799 10.0303 0.469692L13.5 3.93936L16.9697 0.469692C17.1842 0.255193 17.5068 0.191027 17.787 0.307112C18.0673 0.423198 18.25 0.696675 18.25 1.00002V12C18.25 12.4142 17.9142 12.75 17.5 12.75H1.5C1.08579 12.75 0.75 12.4142 0.75 12V1.00002C0.75 0.696675 0.932732 0.423198 1.21299 0.307112ZM2.25 2.81068V11.25H16.75V2.81068L14.0303 5.53035C13.7374 5.82325 13.2626 5.82325 12.9697 5.53035L9.5 2.06068L6.03033 5.53035C5.73744 5.82325 5.26256 5.82325 4.96967 5.53035L2.25 2.81068ZM0.75 15C0.75 14.5858 1.08579 14.25 1.5 14.25H17.5C17.9142 14.25 18.25 14.5858 18.25 15C18.25 15.4142 17.9142 15.75 17.5 15.75H1.5C1.08579 15.75 0.75 15.4142 0.75 15Z" fill="#7E74F1"/>
</svg>
