<svg width="21" height="20" viewBox="0 0 21 20" fill="none" xmlns="http://www.w3.org/2000/svg">
<path fill-rule="evenodd" clip-rule="evenodd" d="M2.28363 9.25H5.76998C5.9204 6.44512 6.89621 4.30361 7.87596 2.83397C8.08142 2.52579 8.28707 2.24706 8.4854 1.99774C5.1374 2.83794 2.60136 5.72414 2.28363 9.25ZM10.5 1.99961C10.4696 2.02906 10.438 2.06014 10.4053 2.09283C10.0593 2.43885 9.59234 2.96357 9.12404 3.66603C8.27404 4.94103 7.42017 6.79961 7.27243 9.25H13.7276C13.5798 6.79961 12.726 4.94103 11.876 3.66603C11.4077 2.96357 10.9407 2.43885 10.5947 2.09283C10.562 2.06014 10.5304 2.02906 10.5 1.99961ZM13.7276 10.75H7.27243C7.42017 13.2004 8.27404 15.059 9.12404 16.334C9.59234 17.0364 10.0593 17.5611 10.4053 17.9072C10.438 17.9399 10.4696 17.9709 10.5 18.0004C10.5304 17.9709 10.562 17.9399 10.5947 17.9072C10.9407 17.5611 11.4077 17.0364 11.876 16.334C12.726 15.059 13.5798 13.2004 13.7276 10.75ZM8.48541 18.0023C8.28708 17.7529 8.08142 17.4742 7.87596 17.166C6.89621 15.6964 5.9204 13.5549 5.76998 10.75H2.28363C2.60136 14.2759 5.1374 17.1621 8.48541 18.0023ZM12.5146 18.0023C12.7129 17.7529 12.9186 17.4742 13.124 17.166C14.1038 15.6964 15.0796 13.5549 15.23 10.75H18.7164C18.3986 14.2759 15.8626 17.1621 12.5146 18.0023ZM18.7164 9.25H15.23C15.0796 6.44512 14.1038 4.30361 13.124 2.83397C12.9186 2.52579 12.7129 2.24706 12.5146 1.99774C15.8626 2.83794 18.3986 5.72414 18.7164 9.25ZM0.75 10C0.75 4.61522 5.11522 0.25 10.5 0.25C15.8848 0.25 20.25 4.61522 20.25 10C20.25 15.3848 15.8848 19.75 10.5 19.75C5.11522 19.75 0.75 15.3848 0.75 10Z" fill="#7E74F1"/>
</svg>
